<svg width="59" height="57" viewBox="0 0 59 57" fill="none" xmlns="http://www.w3.org/2000/svg">
<circle cx="28.5" cy="28.2117" r="28" fill="#FFD6DD"/>
<mask id="mask0_2727_8599" style="mask-type:alpha" maskUnits="userSpaceOnUse" x="0" y="0" width="57" height="57">
<circle cx="28.5" cy="28.2117" r="28" fill="#C4C4C4"/>
</mask>
<g mask="url(#mask0_2727_8599)">
<path fill-rule="evenodd" clip-rule="evenodd" d="M28.5 14.708C22.8767 14.708 18.3182 19.2666 18.3182 24.8898V25.9261C17.2863 26.0993 16.5 26.9967 16.5 28.0778V30.5713C16.5 31.6743 17.3184 32.5861 18.3811 32.7326C18.7785 36.3033 21.0224 39.3166 24.1364 40.7959V44.143C16.4351 44.5575 10.3182 50.9335 10.3182 58.7381H46.6818C46.6818 50.9335 40.5649 44.5575 32.8636 44.143V40.7959C35.9775 39.3166 38.2215 36.3033 38.6188 32.7326C39.6816 32.5861 40.5 31.6743 40.5 30.5713V28.0778C40.5 26.9967 39.7137 26.0993 38.6818 25.9261V24.8898C38.6818 19.2666 34.1233 14.708 28.5 14.708Z" fill="#D0C6AC"/>
<mask id="mask1_2727_8599" style="mask-type:luminance" maskUnits="userSpaceOnUse" x="10" y="14" width="37" height="45">
<path fill-rule="evenodd" clip-rule="evenodd" d="M28.5 14.708C22.8767 14.708 18.3182 19.2666 18.3182 24.8898V25.9261C17.2863 26.0993 16.5 26.9967 16.5 28.0778V30.5713C16.5 31.6743 17.3184 32.5861 18.3811 32.7326C18.7785 36.3033 21.0224 39.3166 24.1364 40.7959V44.143C16.4351 44.5575 10.3182 50.9335 10.3182 58.7381H46.6818C46.6818 50.9335 40.5649 44.5575 32.8636 44.143V40.7959C35.9775 39.3166 38.2215 36.3033 38.6188 32.7326C39.6816 32.5861 40.5 31.6743 40.5 30.5713V28.0778C40.5 26.9967 39.7137 26.0993 38.6818 25.9261V24.8898C38.6818 19.2666 34.1233 14.708 28.5 14.708Z" fill="white"/>
</mask>
<g mask="url(#mask1_2727_8599)">
<rect x="4.5" y="14.708" width="48" height="44.0301" fill="#EDB98A"/>
<path fill-rule="evenodd" clip-rule="evenodd" d="M18.3182 31.5938V33.0374C18.3182 38.6606 22.8767 43.2192 28.5 43.2192C34.1233 43.2192 38.6818 38.6606 38.6818 33.0374V31.5938C38.6818 37.217 34.1233 41.7756 28.5 41.7756C22.8767 41.7756 18.3182 37.217 18.3182 31.5938Z" fill="black" fill-opacity="0.1"/>
</g>
<path fill-rule="evenodd" clip-rule="evenodd" d="M28.5 49.1835C31.2112 49.1835 33.4091 47.1637 33.4091 44.6722C33.4091 44.5088 33.3996 44.3474 33.3812 44.1885C40.8364 44.8493 46.6818 51.1111 46.6818 58.738H10.3182C10.3182 51.1111 16.1636 44.8493 23.6188 44.1885C23.6004 44.3474 23.5909 44.5088 23.5909 44.6722C23.5909 47.1637 25.7888 49.1835 28.5 49.1835Z" fill="#E6E6E6"/>
<mask id="mask2_2727_8599" style="mask-type:luminance" maskUnits="userSpaceOnUse" x="10" y="44" width="37" height="15">
<path fill-rule="evenodd" clip-rule="evenodd" d="M28.5 49.1835C31.2112 49.1835 33.4091 47.1637 33.4091 44.6722C33.4091 44.5088 33.3996 44.3474 33.3812 44.1885C40.8364 44.8493 46.6818 51.1111 46.6818 58.738H10.3182C10.3182 51.1111 16.1636 44.8493 23.6188 44.1885C23.6004 44.3474 23.5909 44.5088 23.5909 44.6722C23.5909 47.1637 25.7888 49.1835 28.5 49.1835Z" fill="white"/>
</mask>
<g mask="url(#mask2_2727_8599)">
<rect x="4.5" y="38.8884" width="48" height="19.8496" fill="#FF7096"/>
</g>
<path fill-rule="evenodd" clip-rule="evenodd" d="M24.1364 42.781C22.906 43.6115 22.1364 44.7963 22.1364 46.1115C22.1364 47.4465 22.9294 48.6472 24.1925 49.4794L25.3038 48.6105L26.1364 48.6703L25.9546 48.1017L25.9687 48.0906C24.8596 47.5235 24.1364 46.5937 24.1364 45.5429C24.1364 45.5429 24.1364 45.5429 24.1364 45.5429V42.781ZM32.8636 45.5429C32.8636 45.5429 32.8636 45.5429 32.8636 45.5429C32.8636 46.5937 32.1405 47.5235 31.0313 48.0906L31.0455 48.1017L30.8636 48.6703L31.6962 48.6105L32.7235 49.4136C33.9296 48.5846 34.6818 47.4117 34.6818 46.1115C34.6818 44.8624 33.9876 43.7308 32.8636 42.9088V45.5429Z" fill="#F2F2F2"/>
<path d="M25.9545 35.2796C25.9545 36.2489 27.0742 36.9037 28.5 36.9037C29.9258 36.9037 31.0455 36.2489 31.0455 35.2796C31.0455 35.0803 30.8728 34.9187 30.6818 34.9187C30.4468 34.9187 30.3419 35.082 30.3182 35.2796C30.0923 35.8098 29.5333 36.1307 28.5 36.1819C27.4667 36.1307 26.9077 35.8098 26.6818 35.2796C26.6581 35.082 26.5532 34.9187 26.3182 34.9187C26.1272 34.9187 25.9545 35.0803 25.9545 35.2796Z" fill="black" fill-opacity="0.6"/>
<path fill-rule="evenodd" clip-rule="evenodd" d="M26.3182 31.6704C26.3182 32.4677 27.295 33.114 28.5 33.114C29.705 33.114 30.6818 32.4677 30.6818 31.6704" fill="black" fill-opacity="0.16"/>
<ellipse cx="23.7727" cy="28.4223" rx="1.09091" ry="1.08271" fill="black" fill-opacity="0.6"/>
<ellipse cx="33.2273" cy="28.4223" rx="1.09091" ry="1.08271" fill="black" fill-opacity="0.6"/>
<path d="M21.16 26.1052C21.8718 25.1111 23.8232 24.5537 25.5042 24.9634C25.6992 25.0109 25.8961 24.8925 25.944 24.699C25.9919 24.5054 25.8726 24.3099 25.6776 24.2624C23.7255 23.7866 21.4658 24.4321 20.5672 25.687C20.4509 25.8495 20.4893 26.0748 20.653 26.1903C20.8167 26.3057 21.0437 26.2676 21.16 26.1052Z" fill="black" fill-opacity="0.6"/>
<path d="M35.84 26.1052C35.1282 25.1111 33.1768 24.5537 31.4958 24.9634C31.3008 25.0109 31.1039 24.8925 31.056 24.699C31.0081 24.5054 31.1274 24.3099 31.3224 24.2624C33.2745 23.7866 35.5342 24.4321 36.4328 25.687C36.5491 25.8495 36.5107 26.0748 36.347 26.1903C36.1833 26.3057 35.9563 26.2676 35.84 26.1052Z" fill="black" fill-opacity="0.6"/>
<mask id="mask3_2727_8599" style="mask-type:luminance" maskUnits="userSpaceOnUse" x="4" y="8" width="49" height="51">
<rect x="4.5" y="8.21167" width="48" height="50.5263" fill="white"/>
</mask>
<g mask="url(#mask3_2727_8599)">
<path fill-rule="evenodd" clip-rule="evenodd" d="M13.4091 24.5424C13.4091 25.3636 13.7173 26.1021 14.2915 26.4865C14.456 26.5965 14.7407 26.6533 15.0455 26.679V41.0537C15.0455 41.851 15.6967 42.4973 16.5 42.4973H24.1364V40.803C20.9489 39.3003 18.6731 36.2022 18.3561 32.5485C17.3056 32.3925 16.5 31.4932 16.5 30.4071V28.0612C16.5 27.4313 16.771 26.8643 17.2035 26.4686C19.3016 25.996 21.5856 25.1086 23.8348 23.8198C26.0406 22.5559 27.9262 21.0702 29.3765 19.5353C28.7535 20.9624 27.999 22.2124 27.1131 23.2856C29.4177 22.289 30.9869 20.6866 31.8207 18.4786C31.8893 18.6449 31.9609 18.8111 32.0353 18.977C33.9 23.1336 37.1032 26.0796 40.3556 27.0513C40.4489 27.4321 40.5 27.7876 40.5 28.0612V30.4071C40.5 31.4932 39.6944 32.3925 38.6439 32.5485C38.3269 36.2022 36.0511 39.3003 32.8636 40.803V42.4973H36.1364C39.3497 42.4973 41.9545 39.912 41.9545 36.7229V27.3667V26.9559C41.9545 26.9433 41.9527 26.9268 41.9489 26.9065C41.9356 25.8886 41.8982 23.5008 41.8382 23.0493C40.9685 16.5081 35.3283 11.4597 28.5 11.4597C21.9391 11.4597 16.475 16.1205 15.2273 22.2868C14.2231 22.2868 13.4091 23.2967 13.4091 24.5424Z" fill="#944F23"/>
<mask id="mask4_2727_8599" style="mask-type:luminance" maskUnits="userSpaceOnUse" x="13" y="11" width="29" height="32">
<path fill-rule="evenodd" clip-rule="evenodd" d="M13.4091 24.5424C13.4091 25.3636 13.7173 26.1021 14.2915 26.4865C14.456 26.5965 14.7407 26.6533 15.0455 26.679V41.0537C15.0455 41.851 15.6967 42.4973 16.5 42.4973H24.1364V40.803C20.9489 39.3003 18.6731 36.2022 18.3561 32.5485C17.3056 32.3925 16.5 31.4932 16.5 30.4071V28.0612C16.5 27.4313 16.771 26.8643 17.2035 26.4686C19.3016 25.996 21.5856 25.1086 23.8348 23.8198C26.0406 22.5559 27.9262 21.0702 29.3765 19.5353C28.7535 20.9624 27.999 22.2124 27.1131 23.2856C29.4177 22.289 30.9869 20.6866 31.8207 18.4786C31.8893 18.6449 31.9609 18.8111 32.0353 18.977C33.9 23.1336 37.1032 26.0796 40.3556 27.0513C40.4489 27.4321 40.5 27.7876 40.5 28.0612V30.4071C40.5 31.4932 39.6944 32.3925 38.6439 32.5485C38.3269 36.2022 36.0511 39.3003 32.8636 40.803V42.4973H36.1364C39.3497 42.4973 41.9545 39.912 41.9545 36.7229V27.3667V26.9559C41.9545 26.9433 41.9527 26.9268 41.9489 26.9065C41.9356 25.8886 41.8982 23.5008 41.8382 23.0493C40.9685 16.5081 35.3283 11.4597 28.5 11.4597C21.9391 11.4597 16.475 16.1205 15.2273 22.2868C14.2231 22.2868 13.4091 23.2967 13.4091 24.5424Z" fill="white"/>
</mask>
<g mask="url(#mask4_2727_8599)">
<rect x="4.31818" y="8.21167" width="48.3636" height="50.5263" fill="#2C1B18"/>
</g>
<g opacity="0.439991">
<path fill-rule="evenodd" clip-rule="evenodd" d="M32.0353 18.977C34.2059 23.8155 38.1902 27.0136 41.9545 27.3667V24.8131C41.9545 17.4382 35.9307 11.4597 28.5 11.4597C21.9391 11.4597 16.475 16.1205 15.2857 22.2879C15.2663 22.2872 15.2468 22.2868 15.2273 22.2868C14.2231 22.2868 13.4091 23.2967 13.4091 24.5424C13.4091 25.7121 14.1267 26.6738 15.0454 26.7869V26.8148C15.1029 26.8096 15.1607 26.804 15.2186 26.798C15.2215 26.7981 15.2244 26.7981 15.2273 26.7981C15.3453 26.7981 15.4608 26.7841 15.5726 26.7574C18.0839 26.4398 20.9872 25.4515 23.8348 23.8198C26.0406 22.5559 27.9262 21.0702 29.3765 19.5353C28.7535 20.9624 27.999 22.2124 27.1131 23.2856C29.4177 22.289 30.9869 20.6866 31.8206 18.4786C31.8893 18.6449 31.9609 18.8111 32.0353 18.977Z" fill="white" fill-opacity="0.16"/>
</g>
</g>
</g>
</svg>
